<svg version="1.1" xmlns="http://www.w3.org/2000/svg" xmlns:xlink="http://www.w3.org/1999/xlink" width="1020" height="614"><defs/><g><g transform="translate(10,5) scale(1,1)"><path fill="none" stroke="#000000" d="M 0 5 L 1000 5 L 1000 599 L 0 599 L 0 5" stroke-miterlimit="10"/></g><g transform="translate(10,5) scale(1,1)"><path fill="#ffffff" stroke="none" d="M 0 5 L 0 27 L 167.02978515625 27 L 178.02978515625 16 L 178.02978515625 5 L 0 5"/></g><g transform="translate(10,5) scale(1,1)"><path fill="none" stroke="#000000" d="M 0 5 L 0 27 L 167.02978515625 27 L 178.02978515625 16 L 178.02978515625 5 L 0 5 L 0 5" stroke-miterlimit="10"/></g><g transform="translate(10,5) scale(1,1)"><g><path fill="none" stroke="none"/><text fill="#000000" stroke="none" font-family="Arial" font-size="13px" font-style="normal" font-weight="normal" text-decoration="none" x="70.97900390625" y="22.5">Report Request</text></g></g><g transform="translate(10,5) scale(1,1)"><g><path fill="none" stroke="none"/><text fill="#000000" stroke="none" font-family="Arial" font-size="13px" font-style="normal" font-weight="bold" text-decoration="none" x="5" y="22.5">interaction</text></g></g><g transform="translate(10,5) scale(1,1)"><rect fill="#C0C0C0" stroke="none" x="111" y="47" width="71.736328125" height="39" opacity="0.2"/></g><g transform="translate(10,5) scale(1,1)"><rect fill="#ffffff" stroke="none" x="104" y="40" width="71.736328125" height="39"/></g><g transform="translate(10,5) scale(1,1)"><path fill="none" stroke="#000000" d="M 104 40 L 175.736328125 40 L 175.736328125 79 L 104 79 L 104 40 Z Z" stroke-miterlimit="10"/></g><g transform="translate(10,5) scale(1,1)"><g><path fill="none" stroke="none"/><text fill="#000000" stroke="none" font-family="Arial" font-size="13px" font-style="normal" font-weight="bold" text-decoration="none" x="123.25" y="59.5">Client</text></g></g><g transform="translate(10,5) scale(1,1)"><path fill="none" stroke="#000000" d="M 140.5 80 L 140.5 370" stroke-miterlimit="10" stroke-dasharray="3"/></g><g transform="translate(10,5) scale(1,1)"><rect fill="#C0C0C0" stroke="none" x="263" y="47" width="124.447265625" height="39" opacity="0.2"/></g><g transform="translate(10,5) scale(1,1)"><rect fill="#ffffff" stroke="none" x="256" y="40" width="124.447265625" height="39"/></g><g transform="translate(10,5) scale(1,1)"><path fill="none" stroke="#000000" d="M 256 40 L 380.447265625 40 L 380.447265625 79 L 256 79 L 256 40 Z Z" stroke-miterlimit="10"/></g><g transform="translate(10,5) scale(1,1)"><g><path fill="none" stroke="none"/><text fill="#000000" stroke="none" font-family="Arial" font-size="13px" font-style="normal" font-weight="bold" text-decoration="none" x="288.964111328125" y="59.5">RabbitMQ</text><text fill="#000000" stroke="none" font-family="Arial" font-size="13px" font-style="normal" font-weight="bold" text-decoration="none" x="272.69189453125" y="72.5">Request Queue</text></g></g><g transform="translate(10,5) scale(1,1)"><path fill="none" stroke="#000000" d="M 319.5 80 L 319.5 262" stroke-miterlimit="10" stroke-dasharray="3"/></g><g transform="translate(10,5) scale(1,1)"><rect fill="#C0C0C0" stroke="none" x="415" y="47" width="161.3017578125" height="39" opacity="0.2"/></g><g transform="translate(10,5) scale(1,1)"><rect fill="#ffffff" stroke="none" x="408" y="40" width="161.3017578125" height="39"/></g><g transform="translate(10,5) scale(1,1)"><path fill="none" stroke="#00ff7f" d="M 408 40 L 569.3017578125 40 L 569.3017578125 79 L 408 79 L 408 40 Z Z" stroke-miterlimit="10"/></g><g transform="translate(10,5) scale(1,1)"><g><path fill="none" stroke="none"/><text fill="#000000" stroke="none" font-family="Arial" font-size="13px" font-style="normal" font-weight="bold" text-decoration="none" x="421.825927734375" y="59.5">WinSVC AsyncReports</text></g></g><g transform="translate(10,5) scale(1,1)"><path fill="none" stroke="#000000" d="M 489.5 80 L 489.5 286" stroke-miterlimit="10" stroke-dasharray="3"/></g><g transform="translate(10,5) scale(1,1)"><rect fill="#C0C0C0" stroke="none" x="583" y="47" width="124.49169921875" height="39" opacity="0.2"/></g><g transform="translate(10,5) scale(1,1)"><rect fill="#ffffff" stroke="none" x="576" y="40" width="124.49169921875" height="39"/></g><g transform="translate(10,5) scale(1,1)"><path fill="none" stroke="#000000" d="M 576 40 L 700.49169921875 40 L 700.49169921875 79 L 576 79 L 576 40 Z Z" stroke-miterlimit="10"/></g><g transform="translate(10,5) scale(1,1)"><g><path fill="none" stroke="none"/><text fill="#000000" stroke="none" font-family="Arial" font-size="13px" font-style="normal" font-weight="bold" text-decoration="none" x="588.02001953125" y="59.5">Source Database</text></g></g><g transform="translate(10,5) scale(1,1)"><path fill="none" stroke="#000000" d="M 639.5 80 L 639.5 239" stroke-miterlimit="10" stroke-dasharray="3"/></g><g transform="translate(10,5) scale(1,1)"><rect fill="#C0C0C0" stroke="none" x="719" y="47" width="112.90087890625" height="39" opacity="0.2"/></g><g transform="translate(10,5) scale(1,1)"><rect fill="#ffffff" stroke="none" x="712" y="40" width="112.90087890625" height="39"/></g><g transform="translate(10,5) scale(1,1)"><path fill="none" stroke="#000000" d="M 712 40 L 824.90087890625 40 L 824.90087890625 79 L 712 79 L 712 40 Z Z" stroke-miterlimit="10"/></g><g transform="translate(10,5) scale(1,1)"><g><path fill="none" stroke="none"/><text fill="#000000" stroke="none" font-family="Arial" font-size="13px" font-style="normal" font-weight="bold" text-decoration="none" x="724.369140625" y="59.5">Report Storage</text></g></g><g transform="translate(10,5) scale(1,1)"><path fill="none" stroke="#000000" d="M 769.5 80 L 769.5 370" stroke-miterlimit="10" stroke-dasharray="3"/></g><g transform="translate(10,5) scale(1,1)"><rect fill="#C0C0C0" stroke="none" x="847" y="47" width="142.5126953125" height="39" opacity="0.2"/></g><g transform="translate(10,5) scale(1,1)"><rect fill="#ffffff" stroke="none" x="840" y="40" width="142.5126953125" height="39"/></g><g transform="translate(10,5) scale(1,1)"><path fill="none" stroke="#000000" d="M 840 40 L 982.5126953125 40 L 982.5126953125 79 L 840 79 L 840 40 Z Z" stroke-miterlimit="10"/></g><g transform="translate(10,5) scale(1,1)"><g><path fill="none" stroke="none"/><text fill="#000000" stroke="none" font-family="Arial" font-size="13px" font-style="normal" font-weight="bold" text-decoration="none" x="850.921875" y="59.5">RabbitMQ Response</text><text fill="#000000" stroke="none" font-family="Arial" font-size="13px" font-style="normal" font-weight="bold" text-decoration="none" x="891.740478515625" y="72.5">Queue</text></g></g><g transform="translate(10,5) scale(1,1)"><path fill="none" stroke="#000000" d="M 912.5 80 L 912.5 342" stroke-miterlimit="10" stroke-dasharray="3"/></g><g transform="translate(10,5) scale(1,1)"><path fill="none" stroke="#000000" d="M 140 112 L 319 112" stroke-miterlimit="10"/></g><g transform="translate(10,5) scale(1,1)"><path fill="none" stroke="#000000" d="M 308.83732514237585 116.20951775601598 L 319 112 L 308.83732514237585 107.79048224398402" stroke-miterlimit="10"/></g><g transform="translate(10,5) scale(1,1)"><g><path fill="none" stroke="none"/><text fill="#000000" stroke="none" font-family="Arial" font-size="13px" font-style="normal" font-weight="normal" text-decoration="none" x="171.5" y="108.5">1 : Report Resquest</text></g></g><g transform="translate(10,5) scale(1,1)"><path fill="none" stroke="#000000" d="M 319 128 L 482 128" stroke-miterlimit="10"/></g><g transform="translate(10,5) scale(1,1)"><path fill="none" stroke="#000000" d="M 471.83732514237585 132.209517756016 L 482 128 L 471.83732514237585 123.79048224398402" stroke-miterlimit="10"/></g><g transform="translate(10,5) scale(1,1)"><g><path fill="none" stroke="none"/><text fill="#000000" stroke="none" font-family="Arial" font-size="13px" font-style="normal" font-weight="normal" text-decoration="none" x="321.5" y="124.5">2 : async message delivery</text></g></g><g transform="translate(10,5) scale(1,1)"><rect fill="#ffffff" stroke="none" x="482" y="128" width="13" height="120"/></g><g transform="translate(10,5) scale(1,1)"><path fill="none" stroke="#000000" d="M 482 128 L 495 128 L 495 248 L 482 248 L 482 128 Z Z" stroke-miterlimit="10"/></g><g transform="translate(10,5) scale(1,1)"><path fill="none" stroke="#000000" d="M 495 149 L 632 149" stroke-miterlimit="10"/></g><g transform="translate(10,5) scale(1,1)"><path fill="#000000" stroke="none" d="M 621.8373251423759 153.209517756016 L 632 149 L 621.8373251423758 144.790482243984"/></g><g transform="translate(10,5) scale(1,1)"><path fill="none" stroke="#000000" d="M 621.8373251423759 153.209517756016 L 632 149 L 621.8373251423758 144.790482243984 L 621.8373251423759 153.209517756016" stroke-miterlimit="10"/></g><g transform="translate(10,5) scale(1,1)"><g><path fill="none" stroke="none"/><text fill="#000000" stroke="none" font-family="Arial" font-size="13px" font-style="normal" font-weight="normal" text-decoration="none" x="523.5" y="145.5">3 : query data</text></g></g><g transform="translate(10,5) scale(1,1)"><rect fill="#ffffff" stroke="none" x="632" y="149" width="13" height="28"/></g><g transform="translate(10,5) scale(1,1)"><path fill="none" stroke="#000000" d="M 632 149 L 645 149 L 645 177 L 632 177 L 632 149 Z Z" stroke-miterlimit="10"/></g><g transform="translate(10,5) scale(1,1)"><path fill="none" stroke="#000000" d="M 495 200 L 762 200" stroke-miterlimit="10"/></g><g transform="translate(10,5) scale(1,1)"><path fill="#000000" stroke="none" d="M 751.8373251423759 204.209517756016 L 762 200 L 751.8373251423758 195.790482243984"/></g><g transform="translate(10,5) scale(1,1)"><path fill="none" stroke="#000000" d="M 751.8373251423759 204.209517756016 L 762 200 L 751.8373251423758 195.790482243984 L 751.8373251423759 204.209517756016" stroke-miterlimit="10"/></g><g transform="translate(10,5) scale(1,1)"><g><path fill="none" stroke="none"/><text fill="#000000" stroke="none" font-family="Arial" font-size="13px" font-style="normal" font-weight="normal" text-decoration="none" x="507.5" y="195.5">4 : Write Report to</text></g></g><g transform="translate(10,5) scale(1,1)"><rect fill="#ffffff" stroke="none" x="762" y="200" width="13" height="28"/></g><g transform="translate(10,5) scale(1,1)"><path fill="none" stroke="#000000" d="M 762 200 L 775 200 L 775 228 L 762 228 L 762 200 Z Z" stroke-miterlimit="10"/></g><g transform="translate(10,5) scale(1,1)"><path fill="none" stroke="#000000" d="M 495 234 L 905 234" stroke-miterlimit="10"/></g><g transform="translate(10,5) scale(1,1)"><path fill="#000000" stroke="none" d="M 894.8373251423759 238.209517756016 L 905 234 L 894.8373251423758 229.790482243984"/></g><g transform="translate(10,5) scale(1,1)"><path fill="none" stroke="#000000" d="M 894.8373251423759 238.209517756016 L 905 234 L 894.8373251423758 229.790482243984 L 894.8373251423759 238.209517756016" stroke-miterlimit="10"/></g><g transform="translate(10,5) scale(1,1)"><g><path fill="none" stroke="none"/><text fill="#000000" stroke="none" font-family="Arial" font-size="13px" font-style="normal" font-weight="normal" text-decoration="none" x="661.220458984375" y="230.5">5 : Response</text></g></g><g transform="translate(10,5) scale(1,1)"><rect fill="#ffffff" stroke="none" x="905" y="234" width="13" height="38"/></g><g transform="translate(10,5) scale(1,1)"><path fill="none" stroke="#000000" d="M 905 234 L 918 234 L 918 272 L 905 272 L 905 234 Z Z" stroke-miterlimit="10"/></g><g transform="translate(10,5) scale(1,1)"><path fill="none" stroke="#000000" d="M 905 264 L 146 264" stroke-miterlimit="10"/></g><g transform="translate(10,5) scale(1,1)"><path fill="none" stroke="#000000" d="M 156.16267485762415 259.790482243984 L 146 264 L 156.16267485762415 268.209517756016" stroke-miterlimit="10"/></g><g transform="translate(10,5) scale(1,1)"><g><path fill="none" stroke="none"/><text fill="#000000" stroke="none" font-family="Arial" font-size="13px" font-style="normal" font-weight="normal" text-decoration="none" x="542.5" y="283.5">6 : report file metadata info</text></g></g><g transform="translate(10,5) scale(1,1)"><rect fill="#ffffff" stroke="none" x="133" y="264" width="13" height="48"/></g><g transform="translate(10,5) scale(1,1)"><path fill="none" stroke="#000000" d="M 133 264 L 146 264 L 146 312 L 133 312 L 133 264 Z Z" stroke-miterlimit="10"/></g><g transform="translate(10,5) scale(1,1)"><path fill="none" stroke="#000000" d="M 146 304 L 762 304" stroke-miterlimit="10"/></g><g transform="translate(10,5) scale(1,1)"><path fill="#000000" stroke="none" d="M 751.8373251423759 308.209517756016 L 762 304 L 751.8373251423758 299.790482243984"/></g><g transform="translate(10,5) scale(1,1)"><path fill="none" stroke="#000000" d="M 751.8373251423759 308.209517756016 L 762 304 L 751.8373251423758 299.790482243984 L 751.8373251423759 308.209517756016" stroke-miterlimit="10"/></g><g transform="translate(10,5) scale(1,1)"><g><path fill="none" stroke="none"/><text fill="#000000" stroke="none" font-family="Arial" font-size="13px" font-style="normal" font-weight="normal" text-decoration="none" x="385.5" y="300.5">7 : retrieve reporting file</text></g></g><g transform="translate(10,5) scale(1,1)"><rect fill="#ffffff" stroke="none" x="762" y="304" width="13" height="28"/></g><g transform="translate(10,5) scale(1,1)"><path fill="none" stroke="#000000" d="M 762 304 L 775 304 L 775 332 L 762 332 L 762 304 Z Z" stroke-miterlimit="10"/></g></g></svg>